<svg xmlns="http://www.w3.org/2000/svg" viewBox="0 0 128 128" id="Apply"><path d="M31.52348 11.38511C30.93974 10.11935 30.11075 9 28.53119 9c-2.34043 0-2.93056 2.25361-3.61982 4.04913L19.60813 26.86421A6.20073 6.20073 0 0 0 19 29.05508a1.99273 1.99273 0 0 0 1.20584 1.75441 1.79641 1.79641 0 0 0 2.1456-.36863 9.63869 9.63869 0 0 0 .98944-2.15485l.99036-2.72833h8.42883l.98944 2.67041q.19839.49329.474 1.13914C34.59767 30.24165 35.13985 31 36.182 31a1.95189 1.95189 0 0 0 1.44989-.61713 1.90842 1.90842 0 0 0 .60132-1.35645 7.03724 7.03724 0 0 0-.63708-2.27869L32.17992 13.01992C31.97965 12.49936 31.77419 11.92873 31.52348 11.38511zM25.43457 22.32172l3.0686-8.7793 3.12561 8.7793zM57.12671 15.74828a6.41562 6.41562 0 0 0-1.888-4.80342C53.65534 9.50666 51.38905 9.363 49.363 9.363H43.97473a2.84255 2.84255 0 0 0-2.02228.60968 2.72332 2.72332 0 0 0-.63708 2.03149V28.4024a2.85025 2.85025 0 0 0 .58009 1.93684 2.05955 2.05955 0 0 0 3.02623-.00684 2.85809 2.85809 0 0 0 .5946-1.95923V22.351H49.363q3.86014 0 5.812-1.67645A6.13554 6.13554 0 0 0 57.12671 15.74828zm-4.78009 1.98793a2.88827 2.88827 0 0 1-1.52032 1.045 8.24672 8.24672 0 0 1-2.48175.31891H45.5163V12.59894h2.82825q2.81332 0 3.71924.94348a3.2724 3.2724 0 0 1 .806 2.29254A3.17984 3.17984 0 0 1 52.34662 17.73621zM83.48083 9.64581A1.97861 1.97861 0 0 0 81.946 9a1.905 1.905 0 0 0-1.50586.6532 2.897 2.897 0 0 0-.57336 1.95923V27.99579a2.83759 2.83759 0 0 0 .60138 2.01715 2.64849 2.64849 0 0 0 1.973.624H92.58154a2.26721 2.26721 0 0 0 1.56952-.48633 1.63092 1.63092 0 0 0 .53668-1.26935 1.67284 1.67284 0 0 0-.54437-1.27722 2.20493 2.20493 0 0 0-1.56183-.50812H84.06775V11.61243A2.849 2.849 0 0 0 83.48083 9.64581zM99.00159 30.35419a2.08715 2.08715 0 0 0 3.02618-.00745 2.85267 2.85267 0 0 0 .59363-1.97357v-6.7478l5.19043-8.1702A5.4153 5.4153 0 0 0 109 10.75629 1.84536 1.84536 0 0 0 107.1475 9a2.447 2.447 0 0 0-2.03659 1.49463q-.24042.40714-.59369 1.0014l-3.91809 6.45758L96.72449 11.496a15.0795 15.0795 0 0 0-1.33585-1.99527 1.99455 1.99455 0 0 0-2.68739.03657c-1.2403 1.19212-.04786 2.91212.65733 4.03383l5.06287 8.0542v6.7478A2.89218 2.89218 0 0 0 99.00159 30.35419zM64.83447 22.351h3.84668q3.86014 0 5.812-1.67645a6.13554 6.13554 0 0 0 1.95178-4.92621 7.42368 7.42368 0 0 0-.4807-2.74271 5.6127 5.6127 0 0 0-3.60627-3.26523A13.77649 13.77649 0 0 0 68.68115 9.363H63.29291a2.84228 2.84228 0 0 0-2.02222.60968 2.72307 2.72307 0 0 0-.63708 2.03149V26.04462a10.87778 10.87778 0 0 1 4.20087 1.217zm0-9.752h2.82831q2.81332 0 3.71924.94348a3.27236 3.27236 0 0 1 .806 2.29254 3.17984 3.17984 0 0 1-.52319 1.90125 2.88835 2.88835 0 0 1-1.52026 1.045 8.24728 8.24728 0 0 1-2.48175.31891H64.83447z" fill="#000000" class="color000000 svgShape"></path><path d="M114,0H14A6.00656,6.00656,0,0,0,8,6V34a6.00656,6.00656,0,0,0,6,6H48.53534l.02179-2.87354A11.20376,11.20376,0,0,1,48.62244,36H14a2.002,2.002,0,0,1-2-2V6a2.002,2.002,0,0,1,2-2H114a2.002,2.002,0,0,1,2,2V34a2.002,2.002,0,0,1-2,2H70.66876a11.40919,11.40919,0,0,1,.05,1.14355L70.697,40H114a6.00656,6.00656,0,0,0,6-6V6A6.00656,6.00656,0,0,0,114,0Z" fill="#000000" class="color000000 svgShape"></path><path d="M89.99512 56.6001h-.05176a7.0359 7.0359 0 0 0-3.49371.96289 7.00262 7.00262 0 0 0-1.64789-2.61816 6.8707 6.8707 0 0 0-4.99121-2.04492A7.04175 7.04175 0 0 0 76.113 53.98853a7.02855 7.02855 0 0 0-1.449-2.11743 6.84111 6.84111 0 0 0-4.99121-2.04443 7.01987 7.01987 0 0 0-3.05548.73126l.10138-13.44464A7.12048 7.12048 0 0 0 59.66211 30a7.2149 7.2149 0 0 0-7.105 7.15674l-.30469 40.17285-5.22754-5.1665a10.62558 10.62558 0 0 0-14.79916-.008 3.30224 3.30224 0 0 0-.27165 4.821l8.36572 8.4585A110.792 110.792 0 0 1 51.28076 98.4917a61.334 61.334 0 0 1 6.08484 10.702 13.87945 13.87945 0 0 1 3.89288-1.07349 63.93532 63.93532 0 0 0-6.67792-11.88971 113.70616 113.70616 0 0 0-11.417-13.6084l-7.81934-7.90625a6.533 6.533 0 0 1 4.31543-1.62549 6.32955 6.32955 0 0 1 4.5376 1.90137l8.61328 8.51367a1.9998 1.9998 0 0 0 3.40576-1.40723L56.55713 37.187A3.19858 3.19858 0 0 1 59.69138 34a3.07121 3.07121 0 0 1 3.02737 3.083l-.26318 34.90186a2.00006 2.00006 0 0 0 4 .03027l.11316-15.0097a3.198 3.198 0 0 1 3.13332-3.17877 3.09979 3.09979 0 0 1 3.02744 3.083l-.1123 15.0752a2.00006 2.00006 0 0 0 4 .03027l.08887-11.933a3.19832 3.19832 0 0 1 3.13376-3.18219 3.059 3.059 0 0 1 3.02688 3.083l-.08789 12.00244a2.00005 2.00005 0 0 0 4 .0293l.05957-8.22754a3.19849 3.19849 0 0 1 3.13371-3.187A3.09094 3.09094 0 0 1 93 63.68311l-.168 22.14063a43.29918 43.29918 0 0 1-3.0249 15.90479 42.11117 42.11117 0 0 0-2.35175 6.50092 13.87075 13.87075 0 0 1 3.80334 1.26544 38.37367 38.37367 0 0 1 2.231-6.20483A47.3856 47.3856 0 0 0 96.832 85.854L97 63.7134A7.18616 7.18616 0 0 0 89.99512 56.6001zM85 112H63a10.01114 10.01114 0 0 0-10 10v4a2.0001 2.0001 0 0 0 2 2H93a2.0001 2.0001 0 0 0 2-2v-4A10.01114 10.01114 0 0 0 85 112zm6 12H57v-2a6.00656 6.00656 0 0 1 6-6H85a6.00656 6.00656 0 0 1 6 6z" fill="#000000" class="color000000 svgShape"></path></svg>