<svg xmlns="http://www.w3.org/2000/svg" enable-background="new 0 0 64 64" viewBox="0 0 64 64" id="Banking"><path d="M61.49,45.6c-1.08-1.71-3.27-2.37-5.11-1.53l-12.69,5.78c0-0.05,0.02-0.1,0.02-0.16c0-1.96-1.6-3.55-3.56-3.55h-8.37
		c-0.43,0-0.87-0.11-1.26-0.31l-7.07-3.72c-0.66-0.35-1.4-0.53-2.15-0.53H15.7v-1.54c0-0.54-0.43-0.97-0.97-0.97H4.47
		c-0.51,0-0.93,0.39-0.97,0.9L1.9,60.95c-0.02,0.27,0.07,0.53,0.26,0.73C2.34,61.88,2.6,62,2.87,62h11.87
		c0.54,0,0.97-0.43,0.97-0.97v-1.61h4.02c0.31,0,0.62,0.05,0.91,0.16l11.04,3.99c0.81,0.29,1.66,0.44,2.5,0.44
		c1.19,0,2.37-0.29,3.44-0.86l22.34-11.8c1.33-0.7,2.15-2.08,2.15-3.59C62.1,46.99,61.89,46.25,61.49,45.6z M13.76,60.06H3.91
		L5.36,41h8.4V60.06z M59.04,49.63L36.7,61.43c-1.34,0.71-2.93,0.82-4.37,0.31L21.3,57.75c-0.51-0.18-1.04-0.28-1.57-0.28H15.7
		V43.51h5.58c0.43,0,0.86,0.11,1.25,0.31l7.08,3.73c0.67,0.34,1.41,0.53,2.15,0.53h8.37c0.89,0,1.62,0.72,1.62,1.61
		c0,0.55-0.26,0.93-0.47,1.15c-0.1,0.1-0.23,0.19-0.37,0.27l-0.11,0.05c-0.22,0.1-0.45,0.15-0.67,0.15h-10.8
		c-1.79,0-3.25,1.46-3.25,3.25c0,0.54,0.43,0.97,0.97,0.97s0.97-0.43,0.97-0.97c0-0.72,0.59-1.31,1.31-1.31h10.8
		c0.47,0,0.93-0.12,1.38-0.3c0.03-0.01,0.07-0.01,0.11-0.03l0.19-0.09c0,0,0.01,0,0.01,0c0,0,0,0,0.01,0l15.35-6.99
		c0.96-0.44,2.1-0.09,2.67,0.8c0.21,0.33,0.32,0.72,0.32,1.12C60.16,48.54,59.73,49.26,59.04,49.63z" fill="#000000" class="color000000 svgShape"></path><path d="M42.77,43.51c6.5,0,11.78-5.29,11.78-11.78c0-6.5-5.28-11.78-11.78-11.78c-6.5,0-11.78,5.29-11.78,11.78
		C30.99,38.23,36.28,43.51,42.77,43.51z M42.77,21.89c5.43,0,9.84,4.41,9.84,9.84s-4.41,9.84-9.84,9.84c-5.43,0-9.84-4.41-9.84-9.84
		S37.35,21.89,42.77,21.89z" fill="#000000" class="color000000 svgShape"></path><path d="M39.65 35.92c.06.06.14.12.26.18.11.06.25.12.4.18.16.06.33.11.52.16.19.05.4.09.61.12l-.16 1.54c-.01.06-.01.11.01.15.02.05.05.08.11.11.06.03.13.05.23.06.1.02.23.02.39.02.13 0 .23-.01.31-.02.08-.01.15-.03.2-.05.05-.02.08-.05.1-.08.02-.03.03-.07.03-.11l.16-1.62c.48-.04.93-.14 1.32-.29.4-.15.74-.35 1.02-.61.28-.25.5-.55.65-.9.15-.35.23-.74.23-1.17 0-.41-.06-.76-.19-1.05-.13-.29-.29-.54-.5-.74-.21-.2-.44-.38-.71-.51-.26-.14-.53-.26-.81-.37-.27-.11-.54-.21-.81-.3-.26-.1-.5-.2-.71-.32-.21-.12-.38-.25-.5-.42-.13-.16-.19-.36-.19-.6 0-.15.03-.29.08-.42.06-.13.14-.23.26-.33.12-.09.27-.16.45-.21.19-.05.41-.08.67-.08.29 0 .55.03.79.1.24.07.45.14.64.21.18.08.34.15.47.21.13.07.22.1.29.1.04 0 .07-.01.09-.03.03-.02.05-.05.07-.11.02-.05.03-.13.04-.23.01-.1.01-.23.01-.39 0-.12 0-.22-.01-.31-.01-.09-.01-.16-.03-.23-.01-.06-.03-.12-.05-.16-.02-.04-.06-.09-.1-.13-.04-.04-.12-.09-.23-.14-.11-.05-.23-.1-.37-.15-.14-.05-.28-.09-.44-.12-.16-.04-.31-.06-.45-.08l.15-1.43c0-.06-.01-.11-.02-.15-.02-.05-.05-.08-.11-.11-.06-.03-.13-.05-.24-.06-.1-.02-.23-.02-.39-.02-.13 0-.24.01-.32.02-.08.01-.15.03-.19.05-.05.02-.08.05-.1.08-.02.03-.03.06-.03.1l-.15 1.52c-.44.05-.83.15-1.18.29-.35.14-.64.33-.87.56-.24.23-.42.5-.54.81-.13.31-.19.65-.19 1.03 0 .42.06.78.19 1.07.12.3.29.55.5.75.21.21.44.38.7.52.26.14.53.26.8.37.27.11.54.21.8.3.26.09.49.2.7.32.21.12.37.26.5.41C43.94 33.4 44 33.6 44 33.84c0 .36-.14.65-.43.87-.29.22-.73.33-1.32.33-.38 0-.71-.04-.99-.11s-.52-.16-.72-.25c-.2-.09-.36-.17-.48-.25-.13-.08-.22-.11-.29-.11-.05 0-.09.01-.13.03-.04.02-.07.06-.09.12-.03.06-.04.15-.05.26-.01.11-.01.25-.01.42 0 .22.01.39.04.5C39.55 35.77 39.59 35.86 39.65 35.92zM22.42 28.49c4.97 0 9.01-4.04 9.01-9.01 0-4.97-4.04-9.01-9.01-9.01-4.97 0-9.01 4.04-9.01 9.01C13.41 24.45 17.45 28.49 22.42 28.49zM22.42 12.41c3.9 0 7.07 3.17 7.07 7.07 0 3.9-3.17 7.07-7.07 7.07s-7.07-3.17-7.07-7.07C15.35 15.58 18.52 12.41 22.42 12.41z" fill="#000000" class="color000000 svgShape"></path><path d="M20.04 22.66c.04.04.11.09.2.14.09.05.19.09.31.14.12.04.25.08.4.12.15.04.3.07.47.09l-.12 1.17c-.01.04 0 .08.01.12.01.03.04.06.08.08.04.02.1.04.18.05.08.01.17.02.3.02.1 0 .18 0 .24-.01.06-.01.11-.02.15-.04.04-.02.06-.03.07-.06.01-.02.02-.05.03-.08l.12-1.23c.37-.03.7-.1 1.01-.22.3-.12.56-.27.78-.46.22-.19.38-.42.5-.69.12-.27.18-.56.18-.89 0-.31-.05-.58-.14-.8-.1-.22-.22-.41-.38-.56-.16-.16-.34-.29-.54-.39-.2-.11-.41-.2-.62-.28-.21-.08-.41-.16-.62-.23s-.38-.15-.54-.24c-.16-.09-.29-.19-.38-.32-.1-.12-.14-.27-.14-.46 0-.12.02-.22.06-.32.04-.1.11-.18.2-.25.09-.07.2-.12.35-.16.14-.04.31-.06.51-.06.22 0 .42.02.6.07.18.05.34.1.48.16.14.06.26.11.35.16.1.05.17.07.22.07.03 0 .05-.01.07-.02.02-.01.04-.04.05-.08.02-.04.03-.1.03-.18.01-.08.01-.17.01-.29 0-.09 0-.17-.01-.23 0-.07-.01-.12-.02-.17-.01-.05-.02-.09-.04-.12-.02-.03-.04-.07-.07-.1-.03-.03-.09-.07-.18-.11-.08-.04-.18-.08-.28-.12-.1-.04-.22-.07-.33-.1-.12-.03-.23-.05-.34-.06l.12-1.09c0-.04-.01-.08-.02-.12-.01-.03-.04-.06-.08-.08-.04-.02-.1-.04-.18-.05-.08-.01-.18-.02-.3-.02-.1 0-.18 0-.24.01-.06.01-.11.02-.15.04-.04.02-.06.04-.07.06-.01.02-.02.05-.03.08l-.12 1.16c-.33.04-.63.11-.9.22-.26.11-.48.25-.67.43-.18.18-.32.38-.41.62-.1.24-.14.5-.14.79 0 .32.05.59.14.82.09.22.22.42.38.57.16.16.34.29.53.4.2.11.4.2.61.28.21.08.41.16.61.23.2.07.38.15.53.24.16.09.28.19.38.31.09.12.14.27.14.46 0 .28-.11.5-.33.67-.22.17-.55.25-1 .25-.29 0-.54-.03-.75-.09-.21-.06-.39-.12-.54-.19-.15-.07-.27-.13-.37-.19-.1-.06-.17-.09-.22-.09-.04 0-.07.01-.1.03-.03.02-.05.05-.07.1-.02.05-.03.11-.04.2-.01.08-.01.19-.01.32 0 .17.01.3.03.38C19.96 22.55 20 22.62 20.04 22.66zM42.07 17.24c.04.04.1.06.15.09.05.03.1.07.15.1.12.05.24.07.36.07.12 0 .25-.03.36-.07.06-.02.1-.06.15-.1.05-.03.1-.05.15-.09l2.55-2.37c.39-.36.41-.98.05-1.37-.37-.39-.98-.41-1.37-.05L43.7 14.3V6.31c0-.54-.43-.97-.97-.97-.54 0-.97.43-.97.97v7.99l-.92-.85c-.39-.36-1-.34-1.37.05-.37.39-.34 1.01.05 1.37L42.07 17.24zM49.77 12.89c.04.04.1.06.15.09.05.03.1.07.15.1.12.05.24.07.36.07.12 0 .25-.03.36-.07.06-.02.1-.06.15-.1.05-.03.1-.05.15-.09l2.55-2.37c.39-.36.41-.98.05-1.37-.37-.39-.98-.41-1.37-.05L51.4 9.95V.97C51.4.43 50.96 0 50.43 0s-.97.43-.97.97v8.98L48.54 9.1c-.39-.36-1-.34-1.37.05-.37.39-.34 1.01.05 1.37L49.77 12.89z" fill="#000000" class="color000000 svgShape"></path></svg>