<svg xmlns="http://www.w3.org/2000/svg" enable-background="new 0 0 68 68" viewBox="0 0 68 68" id="FinancialInstitute"><path d="M57.7307129,30.7469482c1.1508789,0,2.0869141-0.9365234,2.0869141-2.0874023v-3.3491211h3.1733398
		c0.8300781,0,1.5722656-0.496582,1.890625-1.265625c0.3183594-0.7685547,0.144043-1.6445313-0.4433594-2.2319336
		L35.3728027,1.5213623c-0.7553711-0.6850585-1.9912109-0.684082-2.7456055,0L3.6965332,21.7000732l-0.1347656,0.112793
		c-0.5874023,0.5874023-0.7617188,1.4633789-0.4433594,2.2319336c0.3183594,0.769043,1.0605469,1.265625,1.890625,1.265625h3.171875
		v3.3491211c0,1.1508789,0.9360352,2.0874023,2.0869141,2.0874023h0.0561523v26.1748047H8.7790527
		c-2.9501953,0-5.3500977,2.3999023-5.3500977,5.3500977v4.7202148h61.1420898v-4.7202148
		c0-2.9501953-2.3999023-5.3500977-5.3500977-5.3500977h-1.5458984V30.7469482H57.7307129z M5.0026855,23.2279053
		L33.8322754,3.1195068l0.1386719-0.050293l0.0625-0.0625L63.048584,23.2635498l-0.0151367,0.0161133
		c-0.012207,0.0307617-0.0229492,0.0307617-0.0424805,0.0307617L5.0026855,23.2279053z M28.651123,28.7469482H28.595459
		c-0.0483398,0-0.0874023-0.0390625-0.0874023-0.0874023v-3.3481445h10.9824219v3.3481445
		c0,0.0483398-0.0390625,0.0874023-0.0869141,0.0874023h-0.0561523H28.651123z M37.3474121,30.7469482v26.171875H30.651123
		v-26.171875H37.3474121z M28.595459,30.7469482h0.0556641v26.1748047h-7.6308594V30.7469482h0.0556641
		c1.1508789,0,2.0874023-0.9365234,2.0874023-2.0874023v-3.3491211h3.3447266v3.3491211
		C26.5080566,29.8104248,27.4445801,30.7469482,28.595459,30.7469482z M39.3474121,30.7469482h0.0561523
		c1.1508789,0,2.0869141-0.9365234,2.0869141-2.0874023v-3.3491211h3.3452148v3.3491211
		c0,1.1508789,0.9360352,2.0874023,2.0869141,2.0874023h0.0556641v26.1748047h-7.6308594V30.7469482z M10.2678223,28.7469482
		c-0.0478516,0-0.0869141-0.0390625-0.0869141-0.0874023v-3.3481445h10.9824219v3.3481445
		c0,0.0483398-0.0390625,0.0874023-0.0874023,0.0874023h-0.0556641H10.3239746H10.2678223z M19.0202637,30.7469482v26.171875
		h-6.6962891v-26.171875H19.0202637z M59.2209473,58.9217529c1.847168,0,3.3500977,1.5029297,3.3500977,3.3500977v2.7202148
		H5.4289551v-2.7202148c0-1.847168,1.5029297-3.3500977,3.3500977-3.3500977H59.2209473z M48.9782715,56.9188232v-26.171875
		h6.6967773v26.171875H48.9782715z M46.9782715,28.7469482h-0.0556641c-0.0478516,0-0.0869141-0.0390625-0.0869141-0.0874023
		v-3.3481445H57.817627v3.3481445c0,0.0483398-0.0390625,0.0874023-0.0869141,0.0874023h-0.0556641H46.9782715z" fill="#83abf4" class="color000000 svgShape"></path><path d="M33.9992676,7.4525146c-3.8730469,0-7.0239258,3.1508789-7.0239258,7.0239258s3.1508789,7.0239258,7.0239258,7.0239258
		s7.0239258-3.1508789,7.0239258-7.0239258S37.8723145,7.4525146,33.9992676,7.4525146z M33.9992676,19.5003662
		c-2.7700195,0-5.0239258-2.2539063-5.0239258-5.0239258s2.2539063-5.0239258,5.0239258-5.0239258
		s5.0239258,2.2539063,5.0239258,5.0239258S36.7692871,19.5003662,33.9992676,19.5003662z" fill="#83abf4" class="color000000 svgShape"></path><path d="M34.4155884 13.8612671h-.027832v-1.7386475c.4749146.0681152.9152222.2468872 1.3223877.5366211l.6013794-.8508301c-.6043701-.413208-1.2456665-.6442871-1.9237671-.6939697v-.4715576h-.5916138v.4625244c-1.135376.0585327-2.0163574.7365723-2.0163574 1.8635864 0 1.1782227.8065796 1.5748291 2.0163574 1.8635864v1.7943115c-.5494385-.0865479-1.0823364-.3544922-1.6001587-.8045654l-.6751099.8045654c.6713867.5855713 1.4300537.9216309 2.2752686 1.0078125v.6751099h.5916138V17.644104c1.1558838-.0567017 2.0900879-.7062988 2.0900879-1.8729858C36.4778442 14.5518799 35.6030884 14.1405029 34.4155884 13.8612671zM33.7961426 13.6949463c-.5211792-.1674805-.8881226-.3283081-.8881226-.8369751 0-.473938.4160156-.7209473.8881226-.7631836V13.6949463zM34.3877563 16.6543579v-1.6644897c.5560303.1670532.961853.3356934.961853.8693237C35.3496094 16.3561401 34.8820801 16.6034546 34.3877563 16.6543579zM18.0822754 16.5950928l-2.0917969 1.5664063c-.4418945.3310547-.5317383.9580078-.2006836 1.3999023.3307495.4417725.958374.5317993 1.3999023.2006836l2.0917969-1.5664063c.4418945-.3310547.5317383-.9575195.2006836-1.3999023C19.1516113 16.3543701 18.5251465 16.2630615 18.0822754 16.5950928zM50.9724121 17.5950928c-.4433594-.3320313-1.0688477-.2407227-1.3999023.2006836-.3310547.4423828-.2412109 1.0688477.2006836 1.3999023l2.0922852 1.5664063c.1801758.1347656.3901367.199707.5986328.199707.3046875 0 .6049805-.1381836.8012695-.4003906.3310547-.4423828.2412109-1.0688477-.2006836-1.3999023L50.9724121 17.5950928zM23.2878418 12.6761475l-2.0209961 1.5136719c-.4418945.3310547-.5317383.9580078-.2006836 1.3999023.3307495.4417725.958374.5317993 1.3999023.2006836l2.0209961-1.5136719c.4418945-.3310547.5317383-.9580078.2006836-1.3999023C24.357666 12.4344482 23.7302246 12.3441162 23.2878418 12.6761475z" fill="#83abf4" class="color000000 svgShape"></path></svg>