<svg xmlns="http://www.w3.org/2000/svg" viewBox="0 0 64 64" id="Government"><path d="M61 56h-3v-3a1 1 0 0 0-1-1h-7V36h2a1 1 0 0 0 1-1v-4a1 1 0 0 0-1-1h-2a18 18 0 0 0-17-17.95V10h16a1 1 0 0 0 1-1V3a1 1 0 0 0-1-1H32a1 1 0 0 0-1 1v9.05A18 18 0 0 0 14 30h-2a1 1 0 0 0-1 1v4a1 1 0 0 0 1 1h2v16H7a1 1 0 0 0-1 1v3H3a1 1 0 0 0-1 1v4a1 1 0 0 0 1 1h58a1 1 0 0 0 1-1v-4a1 1 0 0 0-1-1ZM33 4h15v4H33Zm15 48h-2V36h2Zm-12 0h-8V42a4 4 0 0 1 8 0Zm-4-16a6 6 0 0 0-6 6v10h-2V36h16v16h-2V42a6 6 0 0 0-6-6Zm-10 0v16h-2V36Zm20 0h2v16h-2Zm6-6h-6v-.11a20.85 20.85 0 0 0-5.24-14 17.54 17.54 0 0 0-1.57-1.54A16 16 0 0 1 48 30ZM31 15.11V30h-7v-.11a18.52 18.52 0 0 1 7-14.78Zm2 0a17.22 17.22 0 0 1 2.28 2.09A18.89 18.89 0 0 1 40 29.89V30h-7Zm-4.19-.79A20.69 20.69 0 0 0 22 29.89V30h-6a16 16 0 0 1 12.81-15.68ZM13 32h38v2H13Zm3 4h2v16h-2ZM8 54h48v2H8Zm52 6H4v-2h56Z" fill="#000000" class="color000000 svgShape"></path></svg>