<svg xmlns="http://www.w3.org/2000/svg" enable-background="new 0 0 442.36 503.974" viewBox="0 0 442.36 503.974" id="Government"><path fill="#83abf4" d="M219.532,125.744l-99.065,44.815c-1.716,0.777-2.658,2.646-2.261,4.488
	c0.397,1.842,2.026,3.157,3.91,3.157h198.129c1.884,0,3.513-1.315,3.91-3.157c0.397-1.842-0.545-3.711-2.261-4.488l-99.065-44.815
	C221.781,125.271,220.58,125.271,219.532,125.744z M301.698,170.204H140.663l80.518-36.425L301.698,170.204z M4,503.974h434.36
	c2.209,0,4-1.791,4-4v-46.539c0-2.209-1.791-4-4-4h-19.27V250.597h19.27c2.209,0,4-1.791,4-4v-51.709
	c0-1.571-0.92-2.997-2.351-3.645L225.18,94.059V65.826c11.099-4.442,28.789-9.373,35.867-5.938
	c3.988,1.935,5.795,5.806,7.889,10.289c2.615,5.6,5.579,11.946,13.47,14.368c1.447,0.444,3.131,0.643,4.995,0.643
	c14.572-0.001,39.938-12.188,45.418-14.91c1.36-0.676,2.221-2.063,2.221-3.583V15.931c0-1.384-0.716-2.67-1.892-3.399
	c-1.176-0.729-2.646-0.799-3.887-0.184c-13.209,6.557-36.977,16.098-44.509,13.784c-4.276-1.312-6.042-4.694-8.568-10.104
	c-2.392-5.122-5.103-10.927-11.646-14.101c-13.392-6.498-41.757,5.416-44.947,6.795c-1.464,0.633-2.412,2.076-2.412,3.671v81.666
	L2.351,191.243C0.92,191.891,0,193.317,0,194.888v51.709c0,2.209,1.791,4,4,4h19.27v198.838H4c-2.209,0-4,1.791-4,4v46.539
	C0,502.183,1.791,503.974,4,503.974z M225.18,15.06c11.092-4.445,28.774-9.376,35.867-5.937c3.987,1.935,5.795,5.806,7.889,10.289
	c2.615,5.6,5.579,11.946,13.47,14.368c10.387,3.187,33.187-6.241,44.634-11.509v41.924c-13.5,6.466-35.157,14.889-42.288,12.701
	c-4.276-1.312-6.042-4.694-8.568-10.104c-2.392-5.122-5.103-10.927-11.646-14.101c-2.835-1.375-6.339-1.926-10.136-1.926
	c-10.068,0-22.18,3.873-29.224,6.494V15.06z M411.091,449.435h-38.539V250.597h38.539V449.435z M137.03,250.597v198.838H77.808
	V250.597H137.03z M145.03,250.597h38.539v198.838H145.03V250.597z M191.569,250.597h59.223v198.838h-59.223V250.597z
	 M258.792,250.597h38.539v198.838h-38.539V250.597z M305.33,250.597h59.222v198.838H305.33V250.597z M419.814,190.888H22.546
	L221.18,101.03L419.814,190.888z M8,198.888h426.36v43.709H8V198.888z M31.27,250.597h38.539v198.838H31.27V250.597z M8,457.435
	h426.36v38.539H8V457.435z" class="color333333 svgShape"></path></svg>