<svg xmlns="http://www.w3.org/2000/svg" enable-background="new 0 0 60 60" viewBox="0 0 60 60" id="PrivateProfile"><path d="M28.3165283 27.7841797c5.2007446 0 9.432312-4.2312012 9.432312-9.4319458s-4.2315674-9.4319458-9.432312-9.4319458-9.4315186 4.2312012-9.4315186 9.4319458S23.1157837 27.7841797 28.3165283 27.7841797zM28.3165283 10.6066895c4.2710571 0 7.7459106 3.4744263 7.7459106 7.7455444s-3.4748535 7.7455444-7.7459106 7.7455444c-4.2703247 0-7.7451782-3.4744263-7.7451782-7.7455444S24.0462036 10.6066895 28.3165283 10.6066895zM11.6965332 48.9494629h27.1762695v.2136841c0 1.0568237.8596802 1.9165039 1.9169312 1.9165039h6.4408569c1.0564575 0 1.9160767-.8596802 1.9160767-1.9165039v-3.7778931c0-.9188232-.6503906-1.6870728-1.5142822-1.8724976v-1.680603c0-1.7235718-1.2123413-3.1642456-2.8278809-3.5281982-1.8505249-4.2600708-6.1223755-7.0935059-10.7948608-7.0935059h-11.385498c-6.4901733 0-11.770813 5.2801514-11.770813 11.7703857v5.1254272C10.8533325 48.5718994 11.2304688 48.9494629 11.6965332 48.9494629zM47.4603271 49.163147c0 .12677-.1029663.2301025-.2297363.2301025h-6.4408569c-.12677 0-.2305298-.1033325-.2305298-.2301025v-3.7778931c0-.1268311.1037598-.2301636.2305298-.2301636h.4413452 5.5581055.4414063c.12677 0 .2297363.1033325.2297363.2301636V49.163147zM45.9460449 41.8321533V43.46875h-3.8717651v-1.6365967c0-1.0675659.8687134-1.9358521 1.9358521-1.9358521C45.0773315 39.8963013 45.9460449 40.7645874 45.9460449 41.8321533zM12.5396729 42.980835c0-5.5601196 4.5239258-10.0840454 10.0844727-10.0840454h11.385498c3.7809448 0 7.2557983 2.1660767 8.9662476 5.4818115-1.4915771.4483643-2.5879517 1.8180542-2.5879517 3.4535522v1.680542c-.864563.1852417-1.5151367.9536133-1.5151367 1.8725586v1.8778076H12.5396729V42.980835z" fill="#000000" class="color000000 svgShape"></path></svg>