<svg xmlns="http://www.w3.org/2000/svg" width="2048" height="2048" fill-rule="evenodd" clip-rule="evenodd" image-rendering="optimizeQuality" shape-rendering="geometricPrecision" text-rendering="geometricPrecision" viewBox="0 0 2048 2048" id="register"><g><path fill="none" d="M255.999 255.999h1536v1536h-1536z"></path><g><path fill="#212121" fill-rule="nonzero" d="M401.231 247.792h992.826c22.377 0 42.692 9.129 57.397 23.834 14.705 14.704 23.833 35.02 23.833 57.398V651.12l-72.206 72.206V329.023c0-2.445-1.028-4.695-2.679-6.346-1.651-1.651-3.901-2.679-6.345-2.679H401.231c-2.445 0-4.695 1.028-6.346 2.68-1.651 1.65-2.679 3.9-2.679 6.345v1389.95c0 2.444 1.028 4.695 2.679 6.346 1.651 1.652 3.901 2.678 6.346 2.678h806.18l195.67-195.128V927.54l72.207-72.207v707.208l-10.719 10.69-216.996 216.395-25.385 10.578H401.23c-22.375 0-42.694-9.13-57.398-23.833-14.705-14.705-23.834-35.024-23.834-57.398V329.024c0-22.378 9.129-42.694 23.834-57.398 14.704-14.705 35.02-23.834 57.398-23.834z"></path><path fill="#212121" fill-rule="nonzero" d="M644.925 576.818c13.329 0 25.4-5.407 34.139-14.145 8.737-8.738 14.144-20.81 14.144-34.139 0-13.33-5.405-25.404-14.142-34.14-8.737-8.736-20.809-14.142-34.141-14.142-13.337 0-25.41 5.405-34.143 14.138-8.735 8.734-14.138 20.808-14.138 34.145 0 13.335 5.403 25.407 14.139 34.143 8.735 8.735 20.807 14.14 34.142 14.14zm79.389 31.105c-20.32 20.323-48.395 32.897-79.389 32.897-31 0-59.072-12.57-79.393-32.892-20.32-20.32-32.89-48.392-32.89-79.394 0-31.002 12.57-59.074 32.89-79.394 20.318-20.319 48.39-32.89 79.393-32.89 30.998 0 59.07 12.572 79.391 32.894 20.322 20.32 32.894 48.392 32.894 79.39 0 30.995-12.574 59.069-32.896 79.39zM514.914 878.839H472.079V791.24c0-14.953 2.517-29.672 7.198-43.705 4.776-14.318 11.724-27.557 20.473-39.255 8.74-11.686 19.526-22.119 31.978-30.83 12.115-8.474 25.556-15.102 39.95-19.44l5.634-1.697 16.641-5.01 13.233 11.385 4.482 3.855a54.509 54.509 0 007.805 5.588c2.914 1.724 5.742 3.098 8.449 4.103 2.507.93 5.453 1.703 8.806 2.298 3.045.541 6.245.819 9.562.819 3.266 0 6.433-.278 9.468-.819a52.051 52.051 0 008.934-2.421c3.123-1.155 5.94-2.469 8.413-3.921 2.556-1.503 5.106-3.335 7.616-5.48l4.765-4.073 14.078-12.032 17.423 6.282 5.898 2.127c14.984 5.402 28.06 12.07 39.356 20.084 11.907 8.448 21.865 18.35 30.01 29.794 8.016 11.263 14.072 23.817 18.3 37.746 4.009 13.201 6.299 27.428 7 42.773l.125 1.374v.466h-.126l.028 44.754.007 10.833.02 32.001H514.915zm21.167-87.599v23.597h217.733l-.015-22.677-.043-.91h-.082v-.465h.057c-.522-9.58-1.893-18.121-4.179-25.646-2.17-7.153-5.25-13.557-9.3-19.247-3.97-5.578-8.951-10.496-15.01-14.795-4.065-2.883-8.595-5.5-13.608-7.858a122.01 122.01 0 01-6.277 3.95c-6.166 3.623-12.413 6.61-18.665 8.922a115.96 115.96 0 01-19.933 5.421 116.615 116.615 0 01-20.468 1.82c-6.912 0-13.79-.616-20.563-1.82-6.555-1.164-13.269-3.028-20.055-5.549-6.678-2.48-12.937-5.443-18.698-8.853a115.11 115.11 0 01-6.68-4.271 74.18 74.18 0 00-12.066 6.84c-6.477 4.532-12.291 10.23-17.229 16.832-4.899 6.551-8.71 13.724-11.222 21.255-2.404 7.207-3.697 15.094-3.697 23.454zM933.746 540.715h397.134v64.002H933.746zM464.412 1479.39h866.468v64H464.412zM464.412 1262.77h866.468v64H464.412zM997.914 911.32c-12.383-15.498-34.989-18.024-50.489-5.641-15.498 12.384-18.023 34.99-5.64 50.489l144.41 180.513c-2.486 2.537 29.966 27.542 54.05 2.642l577.183-577.182c14.097-14.097 14.097-36.956 0-51.052-14.097-14.097-36.955-14.097-51.052 0l-549.248 549.248L997.915 911.32z"></path></g><path fill="none" d="M0 0h2048v2048H0z"></path></g></svg>