<svg xmlns="http://www.w3.org/2000/svg" viewBox="0 0 512 512" id="research"><path d="M429,305.21c53.68-59.88,61.5-151,13.73-220A177.76,177.76,0,0,0,150.53,287.81a176.56,176.56,0,0,0,114.42,73.57,180.31,180.31,0,0,0,32.16,2.9,175.71,175.71,0,0,0,64.34-12.17l36.94,83.43a59.16,59.16,0,0,0,38.21,33.1c1.82.51,3.68.94,5.52,1.27a59.86,59.86,0,0,0,10.67,1,59.36,59.36,0,0,0,41.41-101.76Zm-159.4,30.58a151.76,151.76,0,0,1-59.42-274,150.69,150.69,0,0,1,86.15-27.09,153.44,153.44,0,0,1,27.37,2.47,150.8,150.8,0,0,1,97.67,62.87c47.67,68.77,30.51,163.51-38.26,211.19A150.73,150.73,0,0,1,269.58,335.79Zm216.3,78.53a33.35,33.35,0,0,1-39.14,30c-1-.19-2.08-.43-3.11-.72A33.24,33.24,0,0,1,422.16,425l-37.27-84.17q6.64-3.81,13-8.21h0q6.43-4.46,12.34-9.39L476,387.68A33.25,33.25,0,0,1,485.88,414.32Z"></path><path d="M110.55,499.47a13,13,0,0,0,9.19,3.81h187.8a36.74,36.74,0,0,0,36.7-36.7v-51a13,13,0,0,0-26,0v51a10.72,10.72,0,0,1-10.7,10.7H138.93V394.89a30.57,30.57,0,0,0-30.54-30.54H26V92.07a10.72,10.72,0,0,1,10.7-10.7H92.78a13,13,0,0,0,0-26H36.7A36.74,36.74,0,0,0,0,92.07V383.54a13,13,0,0,0,3.81,9.19Zm2.38-104.58v70.2L38.19,390.35h70.2A4.55,4.55,0,0,1,112.93,394.89Z"></path><path d="M404.35,189.17V141.84a13,13,0,0,0-13-13H344a13,13,0,0,0,0,26H360l-46.47,46.47-40.9-40.9a13,13,0,0,0-18.38,0L192.7,221.93a13,13,0,1,0,18.38,18.38L263.41,188l40.9,40.9a13,13,0,0,0,18.38,0l55.66-55.66v15.94a13,13,0,1,0,26,0Z"></path></svg>